<svg viewBox="0 0 24 24" xml:space="preserve" xmlns="http://www.w3.org/2000/svg"><path d="M23.4 5.9 13 .3c-.4-.1-.6-.3-1-.3s-.6.2-1 .3L.8 6c-.5.2-1 .8-.6 1.4.4.6 1 .5 1.4.3l.4-.2V24h20V7.5l.2.1c.4.3 1.4.4 1.7-.2.4-.6.1-1.2-.5-1.5zM9 22c.6 0 1-.4 1-1v-1h4v1c0 .6.4 1 1 1H9zm-3-5c0-.6.4-1 1-1h10c.6 0 1 .4 1 1v2H6v-2zm2-2 .9-3h6.4l.8 3H8zm7 5h2v1h-2v-1zm-8 0h2v1H7v-1zm13 2h-3c.6 0 1-.4 1-1v-1c.6 0 1-.4 1-1v-2c0-1-.8-1.9-1.8-2L16 11H8l-1.2 4c-1 .1-1.8 1-1.8 2v2c0 .6.4 1 1 1v1c0 .6.4 1 1 1H4V6.4L12 2l8 4.4V22z" fill="#ffa263" class="fill-000000"></path><circle cx="7.5" cy="17.5" r=".5" fill="#ffa263" class="fill-000000"></circle><circle cx="16.5" cy="17.5" r=".5" fill="#ffa263" class="fill-000000"></circle><path d="M9.5 18h5c.3 0 .5-.2.5-.5s-.2-.5-.5-.5h-5c-.3 0-.5.2-.5.5s.2.5.5.5z" fill="#ffa263" class="fill-000000"></path></svg>